<mxfile host="app.diagrams.net" agent="Mozilla/5.0 (Linux; Android 10; K) AppleWebKit/537.36 (KHTML, like Gecko) Chrome/131.0.0.0 Safari/537.36" version="24.9.0">
  <diagram name="Page-1" id="Wgfb159eZ_tXH-cTxXiv">
    <mxGraphModel dx="678" dy="847" grid="0" gridSize="10" guides="1" tooltips="1" connect="1" arrows="1" fold="1" page="0" pageScale="1" pageWidth="827" pageHeight="1169" math="0" shadow="0">
      <root>
        <mxCell id="0" />
        <mxCell id="1" parent="0" />
        <mxCell id="t0SSGW7Hjao6n9bfadMS-9" value="&amp;lt;&amp;lt; Device &amp;gt;&amp;gt;&lt;div&gt;: Appareil Client&lt;/div&gt;" style="verticalAlign=top;align=center;spacingTop=8;spacingLeft=2;spacingRight=12;shape=cube;size=10;direction=south;fontStyle=4;html=1;whiteSpace=wrap;" parent="1" vertex="1">
          <mxGeometry x="202" y="186" width="256" height="233" as="geometry" />
        </mxCell>
        <mxCell id="8UfWmvyUHy-kO3Gu5CnD-1" value="&amp;lt;&amp;lt; Device &amp;gt;&amp;gt;&lt;div&gt;: Navigateur&lt;/div&gt;" style="verticalAlign=top;align=center;spacingTop=8;spacingLeft=2;spacingRight=12;shape=cube;size=10;direction=south;fontStyle=4;html=1;whiteSpace=wrap;" parent="1" vertex="1">
          <mxGeometry x="227" y="253" width="201" height="147" as="geometry" />
        </mxCell>
        <mxCell id="t0SSGW7Hjao6n9bfadMS-13" value="&amp;lt;&amp;lt; Artifact &amp;gt;&amp;gt;" style="html=1;whiteSpace=wrap;verticalAlign=top;" parent="1" vertex="1">
          <mxGeometry x="255.38" y="325" width="149.25" height="59" as="geometry" />
        </mxCell>
        <mxCell id="8UfWmvyUHy-kO3Gu5CnD-2" value="&lt;span style=&quot;font-weight: 400;&quot;&gt;HTML 5&lt;/span&gt;&lt;div&gt;&lt;span style=&quot;font-weight: 400;&quot;&gt;WebXR&lt;/span&gt;&lt;/div&gt;" style="text;align=center;fontStyle=1;verticalAlign=middle;spacingLeft=3;spacingRight=3;strokeColor=none;rotatable=0;points=[[0,0.5],[1,0.5]];portConstraint=eastwest;html=1;" parent="1" vertex="1">
          <mxGeometry x="286" y="354" width="83" height="26" as="geometry" />
        </mxCell>
        <mxCell id="8UfWmvyUHy-kO3Gu5CnD-3" value="&amp;lt;&amp;lt; Device &amp;gt;&amp;gt;&lt;div&gt;: Serveur Web&lt;/div&gt;" style="verticalAlign=top;align=center;spacingTop=8;spacingLeft=2;spacingRight=12;shape=cube;size=10;direction=south;fontStyle=4;html=1;whiteSpace=wrap;" parent="1" vertex="1">
          <mxGeometry x="486" y="190" width="282" height="231" as="geometry" />
        </mxCell>
      </root>
    </mxGraphModel>
  </diagram>
</mxfile>
